<svg width="19" height="25" viewBox="0 0 19 25" fill="none" xmlns="http://www.w3.org/2000/svg">
<path fill-rule="evenodd" clip-rule="evenodd" d="M9.98248 6.95703C10.1814 6.95703 10.3722 7.03605 10.5128 7.1767C10.6535 7.31736 10.7325 7.50813 10.7325 7.70704V9.95708H12.9825C13.1814 9.95708 13.3722 10.0361 13.5129 10.1768C13.6535 10.3174 13.7325 10.5082 13.7325 10.7071C13.7325 10.906 13.6535 11.0968 13.5129 11.2374C13.3722 11.3781 13.1814 11.4571 12.9825 11.4571H10.7325V13.7071C10.7325 13.9061 10.6535 14.0968 10.5128 14.2375C10.3722 14.3781 10.1814 14.4572 9.98248 14.4572C9.78357 14.4572 9.5928 14.3781 9.45214 14.2375C9.31149 14.0968 9.23247 13.9061 9.23247 13.7071V11.4571H6.98243C6.78352 11.4571 6.59275 11.3781 6.4521 11.2374C6.31144 11.0968 6.23242 10.906 6.23242 10.7071C6.23242 10.5082 6.31144 10.3174 6.4521 10.1768C6.59275 10.0361 6.78352 9.95708 6.98243 9.95708H9.23247V7.70704C9.23247 7.50813 9.31149 7.31736 9.45214 7.1767C9.5928 7.03605 9.78357 6.95703 9.98248 6.95703V6.95703Z" fill="#338722"/>
<path d="M0.982422 3.95708C0.982422 3.16142 1.2985 2.39834 1.86112 1.83573C2.42373 1.27311 3.18681 0.957031 3.98247 0.957031L15.9827 0.957031C16.7783 0.957031 17.5414 1.27311 18.104 1.83573C18.6666 2.39834 18.9827 3.16142 18.9827 3.95708V24.2074C18.9826 24.3431 18.9458 24.4762 18.876 24.5925C18.8063 24.7089 18.7063 24.8042 18.5867 24.8682C18.4671 24.9323 18.3324 24.9627 18.1969 24.9562C18.0614 24.9497 17.9301 24.9066 17.8172 24.8314L9.98257 20.6088L2.14794 24.8314C2.035 24.9066 1.90378 24.9497 1.76827 24.9562C1.63276 24.9627 1.49803 24.9323 1.37843 24.8682C1.25883 24.8042 1.15883 24.7089 1.08909 24.5925C1.01936 24.4762 0.982492 24.3431 0.982422 24.2074V3.95708ZM3.98247 2.45706C3.58464 2.45706 3.2031 2.61509 2.92179 2.8964C2.64048 3.17771 2.48245 3.55925 2.48245 3.95708V22.8064L9.56706 19.0833C9.69015 19.0014 9.83471 18.9577 9.98257 18.9577C10.1304 18.9577 10.275 19.0014 10.3981 19.0833L17.4827 22.8064V3.95708C17.4827 3.55925 17.3247 3.17771 17.0433 2.8964C16.762 2.61509 16.3805 2.45706 15.9827 2.45706H3.98247Z" fill="#338722"/>
</svg>
