<svg width="13" height="17" viewBox="0 0 13 17" fill="none" xmlns="http://www.w3.org/2000/svg">
<path d="M0.98291 2.95703V16.457C0.982847 16.5439 1.00539 16.6292 1.04833 16.7047C1.09127 16.7801 1.15313 16.8431 1.2278 16.8874C1.30248 16.9317 1.3874 16.9558 1.47422 16.9573C1.56103 16.9588 1.64674 16.9377 1.72291 16.896L6.98291 14.026L12.2429 16.896C12.3191 16.9377 12.4048 16.9588 12.4916 16.9573C12.5784 16.9558 12.6633 16.9317 12.738 16.8874C12.8127 16.8431 12.8745 16.7801 12.9175 16.7047C12.9604 16.6292 12.983 16.5439 12.9829 16.457V2.95703C12.9829 2.4266 12.7722 1.91789 12.3971 1.54282C12.0221 1.16774 11.5133 0.957031 10.9829 0.957031H2.98291C2.45248 0.957031 1.94377 1.16774 1.5687 1.54282C1.19362 1.91789 0.98291 2.4266 0.98291 2.95703Z" fill="#338722"/>
</svg>
