<svg width="12" height="12" viewBox="0 0 12 12" fill="none" xmlns="http://www.w3.org/2000/svg">
<path d="M9.35475 5.9595C10.7933 5.9595 11.9595 5.29699 11.9595 4.47975C11.9595 3.66251 10.7933 3 9.35475 3C7.91619 3 6.75 3.66251 6.75 4.47975C6.75 5.29699 7.91619 5.9595 9.35475 5.9595Z" fill="#828282"/>
<path fill-rule="evenodd" clip-rule="evenodd" d="M9.39381 6.81076C7.53081 6.81076 6.78906 6.03001 6.78906 5.57776V7.51501C6.78906 8.33251 7.95531 8.99401 9.39381 8.99401C10.8338 8.99401 12.0001 8.33251 12.0001 7.51501V5.62426C12.0001 6.07726 11.2576 6.81076 9.39381 6.81076Z" fill="#828282"/>
<path fill-rule="evenodd" clip-rule="evenodd" d="M9.39381 9.80401C7.72731 9.80401 6.78906 9.05326 6.78906 8.60101V10.5203C6.78906 11.3378 7.95531 12 9.39381 12C10.8338 12 12.0001 11.3378 12.0001 10.5203V8.57776C12.0001 9.03001 11.0611 9.80401 9.39381 9.80401Z" fill="#828282"/>
<path d="M2.95275 2.9595C4.58351 2.9595 5.9055 2.29699 5.9055 1.47975C5.9055 0.662507 4.58351 0 2.95275 0C1.32199 0 0 0.662507 0 1.47975C0 2.29699 1.32199 2.9595 2.95275 2.9595Z" fill="#828282"/>
<path fill-rule="evenodd" clip-rule="evenodd" d="M3.0465 3.81076C0.93525 3.81076 0.09375 3.03001 0.09375 2.57776V4.51501C0.09375 5.33251 1.416 5.99401 3.0465 5.99401C4.6785 5.99401 6 5.33251 6 4.51501V2.62426C6 3.07726 5.15775 3.81076 3.0465 3.81076Z" fill="#828282"/>
<path fill-rule="evenodd" clip-rule="evenodd" d="M3.0465 6.80401C1.15725 6.80401 0.09375 6.05326 0.09375 5.60101V7.52026C0.09375 8.33776 1.416 9.00001 3.0465 9.00001C4.6785 9.00001 6 8.33776 6 7.52026V5.57776C6 6.03001 4.935 6.80401 3.0465 6.80401Z" fill="#828282"/>
<path fill-rule="evenodd" clip-rule="evenodd" d="M3.0465 9.80401C1.15725 9.80401 0.09375 9.05326 0.09375 8.60101V10.5203C0.09375 11.3378 1.416 12 3.0465 12C4.6785 12 6 11.3378 6 10.5203V8.57776C6 9.03001 4.935 9.80401 3.0465 9.80401Z" fill="#828282"/>
</svg>
