<svg width="18" height="14" viewBox="0 0 18 14" fill="none" xmlns="http://www.w3.org/2000/svg">
<path d="M13.5767 6.64453C11.5558 6.64453 9.92041 8.27994 9.92041 10.3008C9.92041 12.3216 11.5558 13.957 13.5767 13.957C15.5975 13.957 17.2329 12.3216 17.2329 10.3008C17.2329 8.27994 15.5975 6.64453 13.5767 6.64453ZM15.2017 10.4605C15.2017 10.5961 15.0907 10.707 14.9551 10.707H13.4172C13.2816 10.707 13.1707 10.5961 13.1707 10.4605V8.51633C13.1707 8.38074 13.2816 8.26979 13.4172 8.26979H13.7364C13.872 8.26979 13.9829 8.38074 13.9829 8.51633V9.89453H14.9551C15.0907 9.89453 15.2017 10.0055 15.2017 10.1411V10.4605ZM13.5767 5.83203C13.7138 5.83203 13.8488 5.84041 13.9829 5.8526V4.61328C13.9829 3.96328 13.4142 3.39453 12.7642 3.39453H10.7329V2.17578C10.7329 1.52578 10.1642 0.957031 9.51416 0.957031H5.45166C4.80166 0.957031 4.23291 1.52578 4.23291 2.17578V3.39453H2.20166C1.55166 3.39453 0.98291 3.96328 0.98291 4.61328V6.64453H11.0153C11.7414 6.13443 12.6237 5.83203 13.5767 5.83203ZM9.10791 3.39453H5.85791V2.58203H9.10791V3.39453ZM9.28107 9.08203H6.26416C6.03971 9.08203 5.85791 8.90023 5.85791 8.67578V7.45703H0.98291V11.1133C0.98291 11.7633 1.55166 12.332 2.20166 12.332H9.60125C9.28818 11.7216 9.10791 11.0325 9.10791 10.3008C9.10791 9.87777 9.17088 9.47 9.28107 9.08203Z" fill="#828282"/>
</svg>
