<svg width="18" height="16" viewBox="0 0 18 16" fill="none" xmlns="http://www.w3.org/2000/svg">
<path d="M7.01957 10.1253C7.82518 10.1253 8.4775 10.7785 8.4775 11.5832V14.4991C8.4775 14.8858 8.32389 15.2566 8.05048 15.53C7.77706 15.8034 7.40623 15.957 7.01957 15.957H2.44084C2.05417 15.957 1.68334 15.8034 1.40993 15.53C1.13651 15.2566 0.98291 14.8858 0.98291 14.4991V11.5832C0.98291 10.7785 1.63606 10.1253 2.44084 10.1253H7.01957ZM16.187 10.1253C16.9918 10.1253 17.6449 10.7785 17.6449 11.5832V14.4991C17.6449 14.8858 17.4913 15.2566 17.2179 15.53C16.9445 15.8034 16.5737 15.957 16.187 15.957H11.6083C11.2216 15.957 10.8508 15.8034 10.5774 15.53C10.304 15.2566 10.1504 14.8858 10.1504 14.4991V11.5832C10.1504 10.7785 10.8027 10.1253 11.6083 10.1253H16.187ZM16.187 0.957031C16.9918 0.957031 17.6449 1.61018 17.6449 2.41496V6.99952C17.6451 7.19105 17.6074 7.38072 17.5342 7.5577C17.461 7.73468 17.3536 7.8955 17.2182 8.03097C17.0828 8.16644 16.9221 8.2739 16.7451 8.34722C16.5682 8.42054 16.3785 8.45828 16.187 8.45828H2.44084C2.05417 8.45828 1.68334 8.30468 1.40993 8.03126C1.13651 7.75785 0.98291 7.38702 0.98291 7.00035V2.41496C0.982924 2.04907 1.12051 1.69656 1.36837 1.42741C1.61622 1.15826 1.95622 0.992137 2.32087 0.96203L2.44084 0.957031H16.187Z" fill="#338722"/>
</svg>
