<svg width="20" height="12" viewBox="0 0 20 12" fill="none" xmlns="http://www.w3.org/2000/svg">
<path d="M18.6201 2.59475L10.2743 0.101882C9.81951 -0.0339607 9.32883 -0.0339607 8.87435 0.101882L0.528233 2.59475C-0.176078 2.80506 -0.176078 3.71058 0.528233 3.92089L1.98323 4.35547C1.66399 4.73915 1.46771 5.20718 1.44827 5.71972C1.16014 5.88028 0.957283 6.17 0.957283 6.51586C0.957283 6.82944 1.12723 7.09327 1.37197 7.26198L0.608119 10.6037C0.541697 10.8942 0.769087 11.17 1.07517 11.17H2.75396C3.06034 11.17 3.28773 10.8942 3.22131 10.6037L2.45746 7.26198C2.7022 7.09327 2.87215 6.82944 2.87215 6.51586C2.87215 6.17931 2.67857 5.89774 2.4036 5.73426C2.42634 5.29735 2.65613 4.91106 3.02264 4.66614L8.87405 6.41405C9.14512 6.49492 9.66513 6.59586 10.274 6.41405L18.6201 3.92118C19.3247 3.71058 19.3247 2.80535 18.6201 2.59475ZM10.5552 7.30387C9.70163 7.55868 8.97428 7.41789 8.5928 7.30387L4.25384 6.00798L3.82958 9.30835C3.82958 10.3366 6.40148 11.17 9.57417 11.17C12.7469 11.17 15.3188 10.3366 15.3188 9.30835L14.8945 6.00769L10.5552 7.30387Z" fill="#828282"/>
</svg>
