<svg width="18" height="17" viewBox="0 0 18 17" fill="none" xmlns="http://www.w3.org/2000/svg">
<path d="M7.71975 0.957031H11.0882C11.5349 0.957031 11.9632 1.13447 12.2791 1.45033C12.5949 1.76618 12.7724 2.19456 12.7724 2.64124V4.32545H16.1408C16.5875 4.32545 17.0159 4.5029 17.3317 4.81875C17.6476 5.1346 17.825 5.56298 17.825 6.00966V15.2728C17.825 15.7195 17.6476 16.1479 17.3317 16.4637C17.0159 16.7796 16.5875 16.957 16.1408 16.957H2.66712C2.22044 16.957 1.79205 16.7796 1.4762 16.4637C1.16035 16.1479 0.98291 15.7195 0.98291 15.2728V6.00966C0.98291 5.56298 1.16035 5.1346 1.4762 4.81875C1.79205 4.5029 2.22044 4.32545 2.66712 4.32545H6.03554V2.64124C6.03554 2.19456 6.21299 1.76618 6.52884 1.45033C6.84469 1.13447 7.27307 0.957031 7.71975 0.957031ZM11.0882 4.32545V2.64124H7.71975V4.32545H11.0882ZM8.1408 14.0097L13.6903 8.46019L12.5029 7.27282L8.1408 11.6265L6.3808 9.87493L5.19344 11.0623L8.1408 14.0097Z" fill="#338722"/>
</svg>
