<svg width="15" height="15" viewBox="0 0 15 15" fill="none" xmlns="http://www.w3.org/2000/svg">
<path d="M11.1859 4.57471C11.7085 4.57484 12.2114 4.77367 12.5928 5.13089C12.9742 5.48812 13.2055 5.97701 13.2398 6.49844L13.2447 6.6335V7.2569C12.9907 7.04719 12.7145 6.86577 12.4212 6.71585V6.6335C12.4212 6.32642 12.3068 6.03036 12.1003 5.80305C11.8939 5.57574 11.6102 5.43347 11.3045 5.40399L11.1859 5.39822H6.24483C5.93775 5.39824 5.64169 5.51263 5.41438 5.71908C5.18706 5.92554 5.0448 6.20926 5.01532 6.51491L5.00955 6.6335V11.5746C5.00957 11.8817 5.12395 12.1777 5.33041 12.4051C5.53686 12.6324 5.82058 12.7746 6.12624 12.8041L6.24483 12.8099H6.32718C6.47788 13.1047 6.65988 13.3806 6.86823 13.6334H6.24483C5.72213 13.6335 5.21896 13.4347 4.8374 13.0775C4.45584 12.7202 4.22444 12.2312 4.19015 11.7097L4.18604 11.5746V6.6335C4.18595 6.1108 4.38469 5.60764 4.74194 5.22607C5.09919 4.84451 5.5882 4.61311 6.10977 4.57882L6.24483 4.57471H11.1859Z" fill="white"/>
<path d="M8.84857 1.85311L8.8881 1.98322L9.36163 3.75131H8.50846L8.09259 2.19569C8.01307 1.89914 7.82597 1.64283 7.56775 1.47673C7.30954 1.31063 6.99873 1.24664 6.6959 1.29723L6.57979 1.32194L1.80586 2.60251C1.50979 2.68217 1.25393 2.8691 1.08803 3.12693C0.92213 3.38477 0.85804 3.69508 0.908225 3.99754L0.93293 4.11448L2.21268 8.88676C2.2811 9.14225 2.42973 9.36903 2.63668 9.53373C2.84363 9.69843 3.09798 9.79236 3.36231 9.80169V10.6252C2.94173 10.6161 2.53402 10.4785 2.19395 10.2309C1.85388 9.98329 1.59775 9.63752 1.45998 9.24005L1.41716 9.10005L0.138237 4.32777C0.00274944 3.82293 0.0643654 3.28544 0.310586 2.82435C0.556806 2.36326 0.969195 2.01309 1.4641 1.84487L1.59421 1.80617L6.36649 0.527244C6.84897 0.397907 7.36202 0.448393 7.81003 0.669294C8.25805 0.890195 8.61047 1.26644 8.80163 1.72793L8.84857 1.85311Z" fill="white"/>
<path d="M14.0679 10.7512C14.0679 11.7341 13.6775 12.6767 12.9825 13.3717C12.2875 14.0666 11.3449 14.4571 10.3621 14.4571C9.37923 14.4571 8.43664 14.0666 7.74166 13.3717C7.04668 12.6767 6.65625 11.7341 6.65625 10.7512C6.65625 9.76839 7.04668 8.8258 7.74166 8.13082C8.43664 7.43584 9.37923 7.04541 10.3621 7.04541C11.3449 7.04541 12.2875 7.43584 12.9825 8.13082C13.6775 8.8258 14.0679 9.76839 14.0679 10.7512ZM10.7738 9.1042C10.7738 8.995 10.7305 8.89026 10.6532 8.81304C10.576 8.73583 10.4713 8.69244 10.3621 8.69244C10.2529 8.69244 10.1481 8.73583 10.0709 8.81304C9.9937 8.89026 9.95032 8.995 9.95032 9.1042V10.3395H8.71504C8.60584 10.3395 8.5011 10.3829 8.42388 10.4601C8.34666 10.5373 8.30328 10.642 8.30328 10.7512C8.30328 10.8604 8.34666 10.9652 8.42388 11.0424C8.5011 11.1196 8.60584 11.163 8.71504 11.163H9.95032V12.3983C9.95032 12.5075 9.9937 12.6122 10.0709 12.6894C10.1481 12.7666 10.2529 12.81 10.3621 12.81C10.4713 12.81 10.576 12.7666 10.6532 12.6894C10.7305 12.6122 10.7738 12.5075 10.7738 12.3983V11.163H12.0091C12.1183 11.163 12.223 11.1196 12.3003 11.0424C12.3775 10.9652 12.4209 10.8604 12.4209 10.7512C12.4209 10.642 12.3775 10.5373 12.3003 10.4601C12.223 10.3829 12.1183 10.3395 12.0091 10.3395H10.7738V9.1042Z" fill="white"/>
</svg>
