<svg width="18" height="17" viewBox="0 0 18 17" fill="none" xmlns="http://www.w3.org/2000/svg">
<path d="M9.24737 0.957031L6.13167 2.90744H3.46225V4.56034L1.78456 5.62645C1.30522 5.91571 0.98291 6.43637 0.98291 7.03968V15.3041C0.98291 15.7425 1.15705 16.1629 1.46703 16.4729C1.77701 16.7829 2.19743 16.957 2.6358 16.957H15.8589C16.7763 16.957 17.5118 16.2215 17.5118 15.3041V7.03968C17.5118 6.43637 17.1895 5.91571 16.7102 5.62645L15.0325 4.56034V2.90744H12.3631L9.24737 0.957031ZM5.11514 4.56034H13.3796V8.59339L9.24737 11.1719L5.11514 8.59339V4.56034ZM5.94159 5.38678V6.62645H12.5532V5.38678H5.94159ZM3.46225 6.52728V7.56034L2.6358 7.03968L3.46225 6.52728ZM15.0325 6.52728L15.8589 7.03968L15.0325 7.56034V6.52728ZM5.94159 7.4529V8.69257H12.5532V7.4529H5.94159Z" fill="#338722"/>
</svg>
