<svg width="10" height="14" viewBox="0 0 10 14" fill="none" xmlns="http://www.w3.org/2000/svg">
<path d="M5.04795 0.957031C2.80242 0.957031 0.98291 2.76923 0.98291 5.01394C0.98291 8.89524 5.04795 13.957 5.04795 13.957C5.04795 13.957 9.11299 8.89443 9.11299 5.01394C9.11299 2.77004 7.29348 0.957031 5.04795 0.957031ZM5.04795 7.25866C4.46577 7.25866 3.90743 7.02739 3.49577 6.61572C3.0841 6.20406 2.85283 5.64572 2.85283 5.06353C2.85283 4.48135 3.0841 3.92301 3.49577 3.51135C3.90743 3.09968 4.46577 2.86841 5.04795 2.86841C5.63013 2.86841 6.18847 3.09968 6.60014 3.51135C7.0118 3.92301 7.24307 4.48135 7.24307 5.06353C7.24307 5.64572 7.0118 6.20406 6.60014 6.61572C6.18847 7.02739 5.63013 7.25866 5.04795 7.25866Z" fill="#828282"/>
</svg>
