<svg width="9" height="13" viewBox="0 0 9 13" fill="none" xmlns="http://www.w3.org/2000/svg">
<path d="M4.73213 0.957031C2.66106 0.957031 0.98291 2.62843 0.98291 4.69875C0.98291 8.2785 4.73213 12.947 4.73213 12.947C4.73213 12.947 8.48135 8.27775 8.48135 4.69875C8.48135 2.62918 6.8032 0.957031 4.73213 0.957031ZM4.73213 6.76907C4.19518 6.76907 3.68022 6.55577 3.30054 6.17608C2.92085 5.7964 2.70755 5.28144 2.70755 4.74449C2.70755 4.20754 2.92085 3.69258 3.30054 3.3129C3.68022 2.93322 4.19518 2.71991 4.73213 2.71991C5.26908 2.71991 5.78404 2.93322 6.16372 3.3129C6.5434 3.69258 6.75671 4.20754 6.75671 4.74449C6.75671 5.28144 6.5434 5.7964 6.16372 6.17608C5.78404 6.55577 5.26908 6.76907 4.73213 6.76907Z" fill="#338722"/>
</svg>
