<svg width="14" height="11" viewBox="0 0 14 11" fill="none" xmlns="http://www.w3.org/2000/svg">
<path d="M13.6496 3.1157V8.70703C13.6496 9.6737 12.8662 10.457 11.8996 10.457H2.73291C2.26878 10.457 1.82366 10.2727 1.49547 9.94447C1.16728 9.61628 0.98291 9.17116 0.98291 8.70703V3.1157L7.11558 6.48903C7.24058 6.5577 7.39224 6.5577 7.51691 6.48903L13.6496 3.11536V3.1157ZM11.8996 0.457031C12.3564 0.457074 12.7951 0.635749 13.122 0.95489C13.4488 1.27403 13.6379 1.70834 13.6489 2.16503L7.31624 5.64836L0.983577 2.1647L0.984244 2.1347C1.00291 1.68345 1.19531 1.25689 1.52121 0.944223C1.84711 0.631555 2.28128 0.456989 2.73291 0.457031H11.8996Z" fill="#828282"/>
</svg>
