<svg width="14" height="14" viewBox="0 0 14 14" fill="none" xmlns="http://www.w3.org/2000/svg">
<path d="M7.52059 0.957083C10.2204 0.97703 12.6279 2.65875 13.5718 5.18455C14.5159 7.71061 13.8 10.5563 11.7727 12.3372C9.7457 14.1178 6.82832 14.4643 4.43953 13.2082L4.40976 13.1978C4.40511 13.1951 4.40437 13.1928 4.40337 13.1897L3.95972 12.9386C3.86936 12.9016 3.76924 12.8956 3.7081 12.9111C3.24693 13.0769 2.7756 13.2131 2.297 13.3188L2.20927 13.3293C1.68241 13.341 1.41695 12.9992 1.41695 12.5016L1.42965 12.3951C1.5493 11.9002 1.69924 11.4132 1.86989 10.9623C1.89636 10.8769 1.88755 10.7845 1.84187 10.6989L1.72238 10.466C0.666284 8.44675 0.745927 6.02286 1.9323 4.0771C3.11851 2.13159 5.23804 0.948015 7.52059 0.957083ZM7.51434 1.86354L7.33178 1.8664C5.43862 1.92056 3.69561 2.92732 2.70668 4.54925C1.686 6.22327 1.61748 8.30845 2.52772 10.0488L2.64532 10.2782C2.80173 10.5709 2.83445 10.9139 2.72744 11.2563C2.56113 11.698 2.42214 12.1495 2.31122 12.6082L2.37261 12.3691L2.62918 12.3022C2.71726 12.2779 2.80555 12.2524 2.8943 12.2255L3.16218 12.1406L3.43428 12.0471C3.72171 11.968 4.02731 11.9863 4.32837 12.1104C4.39156 12.1409 4.46997 12.1832 4.56881 12.239L4.84332 12.3966C4.84797 12.3978 4.85204 12.3989 4.85515 12.3998L4.84713 12.3987L5.03416 12.4924C7.00075 13.442 9.34363 13.1628 11.031 11.7773L11.1742 11.6558C12.9186 10.1234 13.5344 7.67524 12.7222 5.50206C11.91 3.32863 9.83791 1.88121 7.51434 1.86354ZM4.63328 6.71575C5.04285 6.71575 5.37517 7.04753 5.37517 7.45716C5.37517 7.8668 5.04285 8.19858 4.63328 8.19858C4.22372 8.19858 3.8914 7.8668 3.8914 7.45716C3.8914 7.04753 4.22372 6.71575 4.63328 6.71575ZM7.51725 6.71575C7.92682 6.71575 8.25914 7.04753 8.25914 7.45716C8.25914 7.8668 7.92682 8.19858 7.51725 8.19858C7.10769 8.19858 6.77537 7.8668 6.77537 7.45716C6.77537 7.04753 7.10769 6.71575 7.51725 6.71575ZM10.4012 6.71575C10.8108 6.71575 11.1431 7.04753 11.1431 7.45716C11.1431 7.8668 10.8108 8.19858 10.4012 8.19858C9.99166 8.19858 9.65934 7.8668 9.65934 7.45716C9.65934 7.04753 9.99166 6.71575 10.4012 6.71575Z" fill="white"/>
</svg>
