<svg width="17" height="17" viewBox="0 0 17 17" fill="none" xmlns="http://www.w3.org/2000/svg">
<path d="M8.99891 0.457031C13.5429 0.457031 16.9829 4.18262 16.9829 8.44501C16.9829 13.3884 12.9509 16.457 8.98291 16.457C7.67091 16.457 6.21491 16.1045 5.04691 15.4155C4.63891 15.1671 4.29491 14.9828 3.85491 15.127L2.23891 15.6078C1.83091 15.736 1.46291 15.4155 1.58291 14.9828L2.11891 13.1881C2.20691 12.9398 2.19091 12.6754 2.06291 12.467C1.37491 11.2011 0.98291 9.81507 0.98291 8.46905C0.98291 4.25473 4.35091 0.457031 8.99891 0.457031ZM12.6549 7.45152C12.0869 7.45152 11.6309 7.90821 11.6309 8.47706C11.6309 9.0379 12.0869 9.5026 12.6549 9.5026C13.2229 9.5026 13.6789 9.0379 13.6789 8.47706C13.6789 7.90821 13.2229 7.45152 12.6549 7.45152ZM8.96691 7.45152C8.40691 7.44351 7.94291 7.90821 7.94291 8.46905C7.94291 9.0379 8.39891 9.49459 8.96691 9.5026C9.53491 9.5026 9.99091 9.0379 9.99091 8.47706C9.99091 7.90821 9.53491 7.45152 8.96691 7.45152ZM5.27891 7.45152C4.71091 7.45152 4.25491 7.90821 4.25491 8.47706C4.25491 9.0379 4.71891 9.5026 5.27891 9.5026C5.84691 9.49459 6.30291 9.0379 6.30291 8.47706C6.30291 7.90821 5.84691 7.45152 5.27891 7.45152Z" fill="#338722"/>
</svg>
