<svg width="16" height="16" viewBox="0 0 16 16" fill="none" xmlns="http://www.w3.org/2000/svg">
<path d="M5.35791 9.70703C5.68943 9.70703 6.00737 9.57534 6.24179 9.34091C6.47621 9.10649 6.60791 8.78855 6.60791 8.45703C6.60791 8.12551 6.47621 7.80757 6.24179 7.57315C6.00737 7.33873 5.68943 7.20703 5.35791 7.20703C5.02639 7.20703 4.70845 7.33873 4.47403 7.57315C4.23961 7.80757 4.10791 8.12551 4.10791 8.45703C4.10791 8.78855 4.23961 9.10649 4.47403 9.34091C4.70845 9.57534 5.02639 9.70703 5.35791 9.70703Z" fill="#828282"/>
<path d="M9.73291 8.45703C9.73291 8.78855 9.60121 9.10649 9.36679 9.34091C9.13237 9.57534 8.81443 9.70703 8.48291 9.70703C8.15139 9.70703 7.83345 9.57534 7.59903 9.34091C7.36461 9.10649 7.23291 8.78855 7.23291 8.45703C7.23291 8.12551 7.36461 7.80757 7.59903 7.57315C7.83345 7.33873 8.15139 7.20703 8.48291 7.20703C8.81443 7.20703 9.13237 7.33873 9.36679 7.57315C9.60121 7.80757 9.73291 8.12551 9.73291 8.45703Z" fill="#828282"/>
<path d="M11.6079 9.70703C11.9394 9.70703 12.2574 9.57534 12.4918 9.34091C12.7262 9.10649 12.8579 8.78855 12.8579 8.45703C12.8579 8.12551 12.7262 7.80757 12.4918 7.57315C12.2574 7.33873 11.9394 7.20703 11.6079 7.20703C11.2764 7.20703 10.9584 7.33873 10.724 7.57315C10.4896 7.80757 10.3579 8.12551 10.3579 8.45703C10.3579 8.78855 10.4896 9.10649 10.724 9.34091C10.9584 9.57534 11.2764 9.70703 11.6079 9.70703Z" fill="#828282"/>
<path fill-rule="evenodd" clip-rule="evenodd" d="M15.9829 8.45703C15.9829 12.5989 12.6248 15.957 8.48291 15.957C4.34104 15.957 0.98291 12.5989 0.98291 8.45703C0.98291 4.31516 4.34104 0.957031 8.48291 0.957031C12.6248 0.957031 15.9829 4.31516 15.9829 8.45703ZM14.7329 8.45703C14.7329 11.9089 11.9348 14.707 8.48291 14.707C5.03104 14.707 2.23291 11.9089 2.23291 8.45703C2.23291 5.00516 5.03104 2.20703 8.48291 2.20703C11.9348 2.20703 14.7329 5.00516 14.7329 8.45703Z" fill="#828282"/>
</svg>
