<svg width="10" height="13" viewBox="0 0 10 13" fill="none" xmlns="http://www.w3.org/2000/svg">
<path d="M2.40084 1.22032L3.04645 1.01392C3.65246 0.820716 4.29867 1.13332 4.55847 1.74413L5.07388 2.96094C5.29828 3.49075 5.17408 4.11415 4.76547 4.50176L3.62906 5.58057C3.69866 6.22618 3.91586 6.86159 4.27947 7.48679C4.62494 8.09173 5.08829 8.62118 5.64208 9.04381L7.0071 8.58781C7.5249 8.41561 8.08831 8.61421 8.40511 9.08041L9.14492 10.1664C9.51393 10.7088 9.44793 11.4564 8.99012 11.916L8.49932 12.4087C8.01091 12.8989 7.3131 13.0771 6.66809 12.8755C5.14468 12.4003 3.74426 10.9896 2.46624 8.64361C1.18643 6.29398 0.734625 4.29956 1.11143 2.66274C1.26983 1.97393 1.76004 1.42492 2.40084 1.22032Z" fill="#828282"/>
</svg>
