<svg width="20" height="17" viewBox="0 0 20 17" fill="none" xmlns="http://www.w3.org/2000/svg">
<path d="M11.6496 0.957031C9.52784 0.957031 7.49301 1.79989 5.99272 3.30018C4.49243 4.80047 3.64958 6.8353 3.64958 8.95703H0.98291L4.44069 12.4148L4.50291 12.5392L8.09402 8.95703H5.42735C5.42735 5.51703 8.20957 2.73481 11.6496 2.73481C15.0896 2.73481 17.8718 5.51703 17.8718 8.95703C17.8718 12.397 15.0896 15.1792 11.6496 15.1792C9.93402 15.1792 8.37846 14.477 7.25846 13.3481L5.99624 14.6104C6.73705 15.3553 7.61801 15.9461 8.5883 16.3489C9.55859 16.7517 10.599 16.9583 11.6496 16.957C13.7713 16.957 15.8061 16.1142 17.3064 14.6139C18.8067 13.1136 19.6496 11.0788 19.6496 8.95703C19.6496 6.8353 18.8067 4.80047 17.3064 3.30018C15.8061 1.79989 13.7713 0.957031 11.6496 0.957031ZM10.7607 5.40147V9.84592L14.5385 12.0859L15.2229 10.9481L12.094 9.09036V5.40147H10.7607Z" fill="#338722"/>
</svg>
