<svg width="14" height="14" viewBox="0 0 14 14" fill="none" xmlns="http://www.w3.org/2000/svg">
<path d="M7.48291 13.957C6.19734 13.957 4.94063 13.5758 3.87171 12.8616C2.80279 12.1474 1.96967 11.1322 1.4777 9.94448C0.985726 8.75676 0.857005 7.44982 1.10781 6.18895C1.35861 4.92807 1.97768 3.76988 2.88672 2.86084C3.79576 1.9518 4.95395 1.33273 6.21483 1.08193C7.4757 0.831126 8.78264 0.959848 9.97036 1.45182C11.1581 1.94379 12.1732 2.77691 12.8875 3.84583C13.6017 4.91475 13.9829 6.17146 13.9829 7.45704C13.9829 9.18094 13.2981 10.8342 12.0791 12.0532C10.8601 13.2722 9.20682 13.957 7.48291 13.957ZM7.48291 1.88561C6.38099 1.88561 5.30381 2.21236 4.38759 2.82456C3.47138 3.43676 2.75727 4.3069 2.33558 5.32494C1.9139 6.34299 1.80356 7.46321 2.01854 8.54397C2.23351 9.62472 2.76414 10.6175 3.54332 11.3966C4.3225 12.1758 5.31523 12.7064 6.39598 12.9214C7.47673 13.1364 8.59696 13.0261 9.61501 12.6044C10.6331 12.1827 11.5032 11.4686 12.1154 10.5524C12.7276 9.63614 13.0543 8.55896 13.0543 7.45704C13.0543 5.9794 12.4674 4.56228 11.4225 3.51744C10.3777 2.47259 8.96055 1.88561 7.48291 1.88561Z" fill="#828282"/>
<path d="M9.61342 10.2426L7.01807 7.64725V3.27832H7.94664V7.26189L10.2681 9.58796L9.61342 10.2426Z" fill="#828282"/>
</svg>
